<svg width="19" height="18" viewBox="0 0 19 18" fill="none" xmlns="http://www.w3.org/2000/svg">
<path fill-rule="evenodd" clip-rule="evenodd" d="M11.5429 1.21978C12.1901 0.951602 12.8838 0.813568 13.5844 0.813568C14.285 0.813568 14.9787 0.951602 15.626 1.21978C16.2732 1.48797 16.8613 1.88104 17.3565 2.37655C17.8519 2.87178 18.2449 3.45974 18.513 4.10687C18.7812 4.7541 18.9193 5.44783 18.9193 6.14842C18.9193 6.84902 18.7812 7.54275 18.513 8.18998C18.2449 8.83716 17.8519 9.42517 17.3564 9.92042C17.3564 9.92046 17.3563 9.9205 17.3563 9.92054L9.98974 17.2871C9.84909 17.4277 9.65832 17.5068 9.45941 17.5068C9.2605 17.5068 9.06973 17.4277 8.92908 17.2871L1.56241 9.92042C0.562016 8.92002 0 7.5632 0 6.14842C0 4.73365 0.562017 3.37682 1.56241 2.37643C2.56281 1.37603 3.91964 0.814014 5.33441 0.814014C6.74918 0.814014 8.10601 1.37603 9.10641 2.37643L9.45941 2.72943L9.81229 2.37655C10.3076 1.88104 10.8956 1.48797 11.5429 1.21978ZM13.5844 2.31357C13.0809 2.31357 12.5822 2.41278 12.117 2.60554C11.6518 2.79829 11.2292 3.08081 10.8732 3.43696L10.8731 3.43709L9.98974 4.32042C9.84909 4.46107 9.65832 4.54009 9.45941 4.54009C9.2605 4.54009 9.06973 4.46107 8.92908 4.32042L8.04575 3.43709C7.32665 2.718 6.35136 2.31401 5.33441 2.31401C4.31746 2.31401 3.34216 2.718 2.62307 3.43709C1.90398 4.15618 1.5 5.13147 1.5 6.14842C1.5 7.16537 1.90398 8.14067 2.62307 8.85976L9.45941 15.6961L16.2957 8.85976L16.2959 8.85964C16.652 8.50366 16.9345 8.08099 17.1273 7.61579C17.3201 7.15059 17.4193 6.65197 17.4193 6.14842C17.4193 5.64487 17.3201 5.14625 17.1273 4.68105C16.9345 4.21585 16.652 3.79319 16.2959 3.43721L16.2956 3.43696C15.9396 3.08081 15.517 2.79829 15.0518 2.60554C14.5866 2.41278 14.088 2.31357 13.5844 2.31357Z" fill="#444444"/>
</svg>
