<svg width="18" height="19" viewBox="0 0 18 19" fill="none" xmlns="http://www.w3.org/2000/svg">
<g clip-path="url(#clip0_1199_7870)">
<path d="M7.41913 14.9847C3.33197 14.9847 0.00683594 11.6596 0.00683594 7.57245C0.00683594 3.48529 3.33197 0.160156 7.41913 0.160156C11.5063 0.160156 14.8314 3.48529 14.8314 7.57245C14.8314 11.6596 11.5063 14.9847 7.41913 14.9847ZM7.41913 1.56533C4.10678 1.56533 1.41201 4.2601 1.41201 7.57245C1.41201 10.8848 4.10678 13.5796 7.41913 13.5796C10.7315 13.5796 13.4263 10.8848 13.4263 7.57245C13.4263 4.2601 10.7315 1.56533 7.41913 1.56533ZM17.7873 17.9544C18.0617 17.68 18.0617 17.2351 17.7873 16.9607L14.6432 13.8167C14.3688 13.5423 13.924 13.5423 13.6496 13.8167C13.3752 14.0911 13.3752 14.5359 13.6496 14.8103L16.7937 17.9544C16.9309 18.0915 17.1107 18.1601 17.2905 18.1601C17.4703 18.1601 17.6501 18.0915 17.7873 17.9544Z" fill="#444444"/>
</g>
<defs>
<clipPath id="clip0_1199_7870">
<rect width="18" height="18" fill="white" transform="translate(0 0.160156)"/>
</clipPath>
</defs>
</svg>
