<svg width="21" height="21" viewBox="0 0 21 21" fill="none" xmlns="http://www.w3.org/2000/svg">
<path d="M5.91931 1.82683L3.41931 5.16016V16.8268C3.41931 17.2689 3.59491 17.6928 3.90747 18.0053C4.22003 18.3179 4.64395 18.4935 5.08598 18.4935H16.7526C17.1947 18.4935 17.6186 18.3179 17.9312 18.0053C18.2437 17.6928 18.4193 17.2689 18.4193 16.8268V5.16016L15.9193 1.82683H5.91931Z" stroke="#444444" stroke-width="1.5" stroke-linecap="round" stroke-linejoin="round"/>
<path d="M3.41931 5.16016H18.4193" stroke="#444444" stroke-width="1.5" stroke-linecap="round" stroke-linejoin="round"/>
<path d="M14.2526 8.49348C14.2526 9.37754 13.9014 10.2254 13.2763 10.8505C12.6512 11.4756 11.8033 11.8268 10.9193 11.8268C10.0352 11.8268 9.18737 11.4756 8.56225 10.8505C7.93713 10.2254 7.58594 9.37754 7.58594 8.49348" stroke="#444444" stroke-width="1.5" stroke-linecap="round" stroke-linejoin="round"/>
</svg>
