<svg width="20" height="21" viewBox="0 0 20 21" fill="none" xmlns="http://www.w3.org/2000/svg">
<path fill-rule="evenodd" clip-rule="evenodd" d="M3.77923 13.1061C4.54501 12.3404 5.58362 11.9102 6.66658 11.9102H13.3333C14.4162 11.9102 15.4548 12.3404 16.2206 13.1061C16.9864 13.8719 17.4166 14.9105 17.4166 15.9935V17.6602C17.4166 18.0744 17.0808 18.4102 16.6666 18.4102C16.2524 18.4102 15.9166 18.0744 15.9166 17.6602V15.9935C15.9166 15.3083 15.6444 14.6513 15.1599 14.1668C14.6755 13.6823 14.0184 13.4102 13.3333 13.4102H6.66658C5.98144 13.4102 5.32436 13.6823 4.83989 14.1668C4.35542 14.6513 4.08325 15.3083 4.08325 15.9935V17.6602C4.08325 18.0744 3.74747 18.4102 3.33325 18.4102C2.91904 18.4102 2.58325 18.0744 2.58325 17.6602V15.9935C2.58325 14.9105 3.01346 13.8719 3.77923 13.1061Z" fill="#444444"/>
<path fill-rule="evenodd" clip-rule="evenodd" d="M10.0001 3.41016C8.57335 3.41016 7.41675 4.56675 7.41675 5.99349C7.41675 7.42023 8.57335 8.57682 10.0001 8.57682C11.4268 8.57682 12.5834 7.42023 12.5834 5.99349C12.5834 4.56675 11.4268 3.41016 10.0001 3.41016ZM5.91675 5.99349C5.91675 3.73833 7.74492 1.91016 10.0001 1.91016C12.2552 1.91016 14.0834 3.73833 14.0834 5.99349C14.0834 8.24865 12.2552 10.0768 10.0001 10.0768C7.74492 10.0768 5.91675 8.24865 5.91675 5.99349Z" fill="#444444"/>
</svg>
