<svg width="45" height="20" viewBox="0 0 45 20" fill="none" xmlns="http://www.w3.org/2000/svg">
<rect width="45" height="20" fill="#95CCB5"/>
<path d="M12.32 9.94V14H10.68V6.9H11.98L15.27 11.08V6.9H16.91V14H15.57L12.32 9.94ZM23.2579 12.56V14H18.2679V6.9H23.1679V8.34H19.9079V9.72H22.7079V11.05H19.9079V12.56H23.2579ZM26.5942 6.91H28.1042L28.8442 9.18L29.5842 6.91H31.1042L29.8942 10.21L30.6142 12.1L32.3942 6.9H34.1842L31.4142 14H29.9942L28.8442 11.22L27.7042 14H26.2742L23.5142 6.9H25.2942L27.0842 12.1L27.7842 10.21L26.5942 6.91Z" fill="white"/>
</svg>
