<svg width="45" height="20" viewBox="0 0 45 20" fill="none" xmlns="http://www.w3.org/2000/svg">
<rect width="45" height="20" fill="#FF8E8E"/>
<path d="M14.94 8.98C14.92 8.94667 14.85 8.89667 14.73 8.83C14.61 8.75667 14.46 8.68 14.28 8.6C14.1 8.52 13.9033 8.45 13.69 8.39C13.4767 8.33 13.2633 8.3 13.05 8.3C12.77 8.3 12.5533 8.35 12.4 8.45C12.2467 8.54333 12.17 8.69 12.17 8.89C12.17 9.05 12.2267 9.17667 12.34 9.27C12.46 9.36333 12.63 9.44667 12.85 9.52C13.07 9.58667 13.34 9.66667 13.66 9.76C14.1133 9.88 14.5067 10.0267 14.84 10.2C15.1733 10.3667 15.4267 10.5833 15.6 10.85C15.78 11.1167 15.87 11.47 15.87 11.91C15.87 12.31 15.7967 12.65 15.65 12.93C15.5033 13.2033 15.3033 13.4267 15.05 13.6C14.8033 13.7667 14.52 13.89 14.2 13.97C13.88 14.0433 13.55 14.08 13.21 14.08C12.8633 14.08 12.5067 14.0467 12.14 13.98C11.78 13.9067 11.4333 13.8067 11.1 13.68C10.7667 13.5467 10.46 13.3867 10.18 13.2L10.9 11.77C10.9267 11.8033 11.0133 11.8667 11.16 11.96C11.3067 12.0467 11.4867 12.14 11.7 12.24C11.92 12.3333 12.1633 12.4167 12.43 12.49C12.6967 12.5633 12.9667 12.6 13.24 12.6C13.5333 12.6 13.75 12.5533 13.89 12.46C14.0367 12.3667 14.11 12.2367 14.11 12.07C14.11 11.89 14.0333 11.75 13.88 11.65C13.7333 11.55 13.53 11.46 13.27 11.38C13.0167 11.3 12.7233 11.21 12.39 11.11C11.9567 10.9767 11.5967 10.8267 11.31 10.66C11.03 10.4933 10.82 10.29 10.68 10.05C10.5467 9.81 10.48 9.51 10.48 9.15C10.48 8.65 10.5967 8.23 10.83 7.89C11.07 7.54333 11.39 7.28333 11.79 7.11C12.19 6.93 12.6267 6.84 13.1 6.84C13.4333 6.84 13.7533 6.88 14.06 6.96C14.3733 7.04 14.6633 7.14 14.93 7.26C15.2033 7.38 15.4467 7.5 15.66 7.62L14.94 8.98ZM18.4563 6.9H20.2263L22.6663 14H20.9863L20.4363 12.41H18.2263L17.6863 14H16.0063L18.4563 6.9ZM20.1663 11.28L19.3363 8.55L18.4863 11.28H20.1663ZM23.3655 14V6.9H25.0055V12.56H28.4455V14H23.3655ZM34.2052 12.56V14H29.2152V6.9H34.1152V8.34H30.8552V9.72H33.6552V11.05H30.8552V12.56H34.2052Z" fill="white"/>
</svg>
